PathFileType	4	(X/Y/Z)	./resultDataOpenSim/trcMotMarkerGrf/sub06/qtm-05-03.trc
DataRate	CameraRate	NumFrames	NumMarkers	Units	OrigDataRate	OrigDataStartFrame	OrigNumFrames
250.000000	250.000000	7	24	m	250.000000	261	520
Frame#	Time	L.Toe.Tip			R.Toe.Tip			L.Ankle.Lat			R.Ankle.Lat			L.Ankle.Med			R.Ankle.Med			L.Heel			R.Heel			L.Knee.Lat			R.Knee.Lat			L.Knee.Med			R.Knee.Med			L.Thigh.Upper			R.Thigh.Upper			L.ASIS			R.ASIS			V.Sacral			L.Acromium			R.Acromium			C7			L.Elbow			R.Elbow			L.Wrist.Lat			R.Wrist.Lat
		X1	Y1	Z1	X2	Y2	Z2	X3	Y3	Z3	X4	Y4	Z4	X5	Y5	Z5	X6	Y6	Z6	X7	Y7	Z7	X8	Y8	Z8	X9	Y9	Z9	X10	Y10	Z10	X11	Y11	Z11	X12	Y12	Z12	X13	Y13	Z13	X14	Y14	Z14	X15	Y15	Z15	X16	Y16	Z16	X17	Y17	Z17	X18	Y18	Z18	X19	Y19	Z19	X20	Y20	Z20	X21	Y21	Z21	X22	Y22	Z22	X23	Y23	Z23	X24	Y24	Z24

261	1.04	0.072953912	-0.065643628	0.03600797	0.60717358	0.1175915	0.19749757	-0.042046279	-0.0061044181	0.017469001	0.47428368	0.10943767	0.2112453	-0.031567261	0.011733213	0.10240969	0.49394372	0.1355847	0.12493744	-0.11553737	-0.016607998	0.067996272	0.4284769	0.074470964	0.14785279	0.082071271	0.3444427	-0.014344026	0.48917463	0.50073158	0.22373369	0.073138799	0.3480689	0.10699315	0.46969514	0.48007502	0.10331419	0.16690856	0.71989728	-0.092209062	0.21451494	0.74219311	0.25644216	0.25425066	0.76588367	-0.057951358	0.28578038	0.78769871	0.18496884	0.084135854	0.84947324	0.085810387	0.26147979	1.2577182	-0.094019404	0.21532987	1.2369578	0.2641175	0.16209704	1.2875999	0.074880234	0.32112424	0.93231389	-0.17101244	0.042664105	0.97000041	0.30033556	0.54648271	0.88068527	-0.086063222	0.098043107	0.7443581	0.36721308
262	1.044	0.072973036	-0.06567752	0.035937126	0.62546594	0.11799543	0.19712614	-0.041534977	-0.0054389646	0.01728134	0.49239805	0.10719686	0.21026943	-0.03088176	0.012343887	0.10221709	0.5120126	0.13403908	0.12410464	-0.11504523	-0.015313586	0.067860653	0.44797389	0.071443915	0.14623362	0.084560922	0.34444519	-0.014436873	0.49539845	0.49896094	0.22375021	0.076487759	0.34761485	0.10679371	0.47654501	0.47810502	0.10344939	0.17108302	0.71900064	-0.091977798	0.22159786	0.74139583	0.25666106	0.25905409	0.76482391	-0.058401677	0.29267994	0.78674766	0.18442176	0.089914974	0.84852604	0.086183333	0.26769338	1.2568267	-0.094022382	0.22175083	1.2357532	0.26422046	0.16850494	1.2867536	0.075063597	0.32831751	0.93110444	-0.17079207	0.048281667	0.96946798	0.30028369	0.55523278	0.88340067	-0.083918129	0.10192092	0.74364444	0.36771429
263	1.048	0.072999526	-0.065706325	0.035869035	0.64338025	0.11829874	0.19675309	-0.040994843	-0.0047557083	0.017068766	0.51018903	0.10512615	0.20925505	-0.03018634	0.012961831	0.10202537	0.52976388	0.1326924	0.12326698	-0.11452612	-0.013999735	0.067724722	0.46696865	0.068695833	0.14479717	0.087256666	0.34440943	-0.014587873	0.50152628	0.49692127	0.22374244	0.079919864	0.34714213	0.10659067	0.4832992	0.47589607	0.10352692	0.17533676	0.71807124	-0.091771811	0.2285619	0.74051366	0.25691428	0.26378301	0.76373134	-0.058808853	0.29959616	0.78572607	0.18387617	0.095725158	0.84755921	0.086630688	0.27393702	1.2559088	-0.094004079	0.22818481	1.2345113	0.26432131	0.1749256	1.2858717	0.07525247	0.33557401	0.92994481	-0.17051888	0.053956865	0.96887444	0.3002514	0.56389353	0.88601988	-0.081813792	0.10585907	0.74288158	0.36823203
264	1.052	0.073030303	-0.065724347	0.035802429	0.66084768	0.1185282	0.19636933	-0.040431683	-0.0040581547	0.016819947	0.52759777	0.10326852	0.20824637	-0.029476559	0.01359463	0.10182308	0.54711743	0.13153364	0.12240663	-0.11398707	-0.012667093	0.067577114	0.48545301	0.066214221	0.14349307	0.090135541	0.34433127	-0.014771966	0.5076308	0.49469173	0.22369719	0.083436968	0.34666687	0.10640353	0.48997029	0.47347313	0.10353045	0.17967111	0.71712563	-0.091584994	0.23542572	0.73951265	0.25714728	0.26842797	0.76262812	-0.059137401	0.30653016	0.7846394	0.18334345	0.10158152	0.8465656	0.08725715	0.28019691	1.2549678	-0.093972806	0.23464015	1.2332357	0.26442708	0.18135163	1.2849623	0.075454776	0.3429183	0.92884823	-0.17018081	0.059689789	0.96821486	0.30023862	0.57246381	0.88854103	-0.079757381	0.10980971	0.74207015	0.3687609
265	1.056	0.073060581	-0.065730322	0.035735931	0.67782498	0.11873104	0.19591419	-0.039854965	-0.003352677	0.016548181	0.54449799	0.10169653	0.20731176	-0.028747019	0.014240793	0.10159973	0.56397155	0.13054087	0.12152572	-0.1134366	-0.01131433	0.067406808	0.50338475	0.064032322	0.14222009	0.093156447	0.34421269	-0.014947905	0.51375698	0.49232023	0.22361923	0.087047384	0.34619014	0.10626079	0.49657141	0.47086341	0.10343647	0.18408221	0.71617498	-0.091393014	0.24226939	0.73836901	0.25732006	0.27304187	0.76150982	-0.059392621	0.31348081	0.78349231	0.18283141	0.10749219	0.84554913	0.088025437	0.28646989	1.254007	-0.093932836	0.24113334	1.2319294	0.26454711	0.18778358	1.2840318	0.075685714	0.35032894	0.92782085	-0.16978118	0.065478526	0.96748714	0.3002481	0.5809503	0.89096169	-0.07774807	0.11380529	0.74121315	0.3692995
266	1.06	0.073085141	-0.065728816	0.035669357	0.69428148	0.11893969	0.19532517	-0.03926901	-0.0026378677	0.016278817	0.56080549	0.10041407	0.20647087	-0.027992309	0.01489968	0.10135558	0.58023138	0.12968821	0.12064592	-0.11287569	-0.0099396131	0.067202271	0.52069637	0.062181127	0.14090278	0.096304119	0.34405976	-0.015090286	0.51989519	0.48981338	0.22350874	0.090768851	0.34570103	0.10618693	0.50310178	0.46809377	0.10323438	0.18856635	0.71522032	-0.091176693	0.24921864	0.73710396	0.25745391	0.27771672	0.76036217	-0.0596164	0.32044475	0.78228662	0.1823417	0.11345796	0.84451746	0.08882032	0.2927674	1.2530299	-0.093879998	0.24767716	1.2306004	0.26468834	0.19423838	1.2830828	0.07595368	0.35778278	0.92686225	-0.16932688	0.071321867	0.96669545	0.30028325	0.58935718	0.8932798	-0.075783617	0.11796835	0.74032319	0.36985643
267	1.064	0.073101253	-0.065727753	0.035604613	0.71018007	0.11915283	0.19459215	-0.038666121	-0.0019100627	0.01601891	0.57654715	0.099304725	0.20565887	-0.027206312	0.015575512	0.10110066	0.5958348	0.12894923	0.11978698	-0.11229993	-0.0085382611	0.06695347	0.53732641	0.060634175	0.1395404	0.099582887	0.34387722	-0.015198806	0.52602495	0.48717338	0.22336022	0.094623976	0.34519504	0.1061768	0.50955522	0.46519612	0.10293593	0.19312279	0.71425729	-0.090922308	0.25637174	0.73577779	0.25761089	0.28254183	0.75918614	-0.059862526	0.32741925	0.78102444	0.18187255	0.11947532	0.8434899	0.089597028	0.29910635	1.252037	-0.093804283	0.25427074	1.2292566	0.26485215	0.20074208	1.2821179	0.076244257	0.36526713	0.92596947	-0.16882332	0.077221665	0.9658472	0.30034717	0.59768446	0.89549369	-0.073861651	0.1223857	0.73941866	0.37044189
